<svg width="32" height="24" viewBox="0 0 32 24" fill="none" xmlns="http://www.w3.org/2000/svg">
<g clip-path="url(#clip0_434_483)">
<path fill-rule="evenodd" clip-rule="evenodd" d="M11.5824 0H20.2855L23.0195 4.54291H11.6321V4.54315C7.65533 4.54315 4.43137 7.84844 4.43137 11.9255C4.43137 15.9645 7.59503 19.246 11.5206 19.3071H26.2305L21.8001 11.926H27.3392L31.7698 19.3071H31.8206V23.8432H11.6321V23.8511C11.4905 23.8511 11.3495 23.8484 11.2092 23.8432H10.6946V23.8129C4.7088 23.3235 0 18.1881 0 11.9255C0 5.35631 5.18106 0.0274862 11.5824 0ZM13.294 8.56218C13.294 9.81672 12.302 10.8337 11.0783 10.8337C9.85465 10.8337 8.86265 9.81672 8.86265 8.56218C8.86265 7.30761 9.85465 6.29058 11.0783 6.29058C12.302 6.29058 13.294 7.30761 13.294 8.56218ZM11.0783 17.1244C12.302 17.1244 13.294 16.1074 13.294 14.8528C13.294 13.5983 12.302 12.5813 11.0783 12.5813C9.85465 12.5813 8.86265 13.5983 8.86265 14.8528C8.86265 16.1074 9.85465 17.1244 11.0783 17.1244Z" fill="#39375A"/>
</g>
<defs>
<clipPath id="clip0_434_483">
<rect width="31.8881" height="24" fill="white"/>
</clipPath>
</defs>
</svg>
