<svg width="24" height="24" viewBox="0 0 24 24" fill="none" xmlns="http://www.w3.org/2000/svg">
<g clip-path="url(#clip0_434_498)">
<mask id="mask0_434_498" style="mask-type:luminance" maskUnits="userSpaceOnUse" x="0" y="0" width="24" height="24">
<path d="M24 0H0V24H24V0Z" fill="white"/>
</mask>
<g mask="url(#mask0_434_498)">
<path d="M23.5199 15.4369C22.2527 19.8049 18.6143 23.0881 14.1407 23.8945V20.4769C14.9471 20.1697 15.6767 19.6801 16.2719 19.0465C16.5983 18.6913 16.8863 18.2977 17.1071 17.8753C17.5295 17.0689 17.7599 16.1761 17.7599 15.2641C17.7599 15.2545 17.7599 15.2449 17.7599 15.2353C17.7599 12.2209 15.5807 11.0113 13.5359 10.1185L12.4991 9.65769C11.3951 9.15849 10.5503 8.71689 10.5503 7.96809C10.5503 6.92169 11.4623 6.36489 12.3167 6.36489C13.2287 6.36489 13.7471 6.70089 14.2943 7.65129L14.7167 8.39049L17.4527 6.63369L17.0975 5.97129C16.4735 4.78089 15.4079 3.85929 14.1407 3.41769V0.288086C14.4095 0.336086 14.6687 0.393686 14.9375 0.460886C14.9663 0.470486 14.9951 0.470486 15.0239 0.480086C15.0527 0.489686 15.0815 0.489686 15.1103 0.499286C15.1199 0.499286 15.1295 0.499286 15.1391 0.508886C15.2063 0.528086 15.2831 0.547286 15.3599 0.566486C20.4863 2.05449 24.0095 6.74889 24.0095 12.0865C24.0095 13.2193 23.8463 14.3521 23.5295 15.4369H23.5199Z" fill="#745DDF"/>
<path d="M14.4 15.3986C14.4 16.7714 13.1616 17.6258 12.0096 17.6258C10.6272 17.6258 9.84 16.4834 9.6864 15.4274L9.552 14.5058L6.24 15.437L6.3936 16.1762C6.864 18.509 8.4576 20.189 10.6272 20.6882V23.9906C10.0416 23.9234 9.456 23.8082 8.8896 23.6546C8.8128 23.6354 8.7264 23.6162 8.6496 23.5874C3.5328 22.0994 0 17.405 0 12.0674V0.537783C0 0.278583 0.2112 0.0673828 0.4704 0.0673828H10.6272V3.36978C9.4368 3.71538 8.4288 4.50258 7.7952 5.55858C7.392 6.25938 7.1808 7.04658 7.1808 7.85298C7.1808 7.86258 7.1808 7.87218 7.1808 7.88178V7.94898C7.2096 10.637 9.1872 11.7698 11.0592 12.6146L11.9904 13.0178L12.0672 13.0562C13.5456 13.7378 14.3808 14.1794 14.3808 15.389L14.4 15.3986Z" fill="#2EB6EA"/>
<path d="M17.7505 15.2356C17.7505 15.2452 17.7505 15.2548 17.7505 15.2644C17.7505 16.1764 17.5297 17.0692 17.0977 17.8756C16.8769 18.298 16.5889 18.7012 16.2625 19.0468C15.6673 19.6804 14.9377 20.17 14.1313 20.4772V23.9044L13.1713 23.9908C13.1713 23.9908 11.1169 24.0484 10.6273 23.9908L10.6177 20.698C8.45767 20.1892 6.86407 18.5188 6.38407 16.186L6.23047 15.4468L9.54247 14.5156L9.67687 15.4372C9.83047 16.4932 10.6177 17.6356 12.0001 17.6356C13.1521 17.6356 14.3905 16.7812 14.3905 15.4084C14.3905 14.1988 13.5553 13.7572 12.0673 13.0756L11.9905 13.0372L11.0593 12.634C9.18727 11.7892 7.20967 10.666 7.18087 7.96837V7.90117C7.18087 7.89157 7.18087 7.88197 7.18087 7.87237C7.18087 7.06597 7.39207 6.27877 7.79527 5.57797C8.42887 4.51237 9.43687 3.72517 10.6273 3.38917V0.0867667C12.7873 0.0675667 12.9601 0.0771667 14.1409 0.288367V3.42757C15.4177 3.86917 16.4737 4.78117 17.0977 5.98117L17.4529 6.64357L14.7169 8.40037L14.2945 7.66117C13.7473 6.71077 13.2289 6.37477 12.3169 6.37477C11.4529 6.37477 10.5505 6.93157 10.5505 7.97797C10.5505 8.73637 11.3953 9.17797 12.4993 9.66757L13.5361 10.1284C15.5809 11.0212 17.7601 12.2308 17.7601 15.2452L17.7505 15.2356Z" fill="white"/>
</g>
</g>
<defs>
<clipPath id="clip0_434_498">
<rect width="24" height="24" fill="white"/>
</clipPath>
</defs>
</svg>
