<svg width="24" height="25" viewBox="0 0 24 25" fill="none" xmlns="http://www.w3.org/2000/svg">
<g clip-path="url(#clip0_367_920)">
<path d="M12 24.5C18.65 24.5 24 19.15 24 12.5C24 5.84996 18.65 0.5 12 0.5C5.34996 0.5 0 5.84996 0 12.5C0 19.15 5.34996 24.5 12 24.5Z" fill="#2775CA"/>
<path d="M15.2996 14.3996C15.2996 12.6496 14.2496 12.0496 12.1496 11.7997C10.6496 11.5996 10.3496 11.1997 10.3496 10.4996C10.3496 9.79953 10.8496 9.34965 11.8496 9.34965C12.7496 9.34965 13.2496 9.64965 13.4996 10.3996C13.5496 10.5496 13.6996 10.6496 13.8496 10.6496H14.6495C14.8496 10.6496 14.9996 10.4996 14.9996 10.2997V10.2496C14.7995 9.14961 13.8995 8.29965 12.7496 8.19969V6.99969C12.7496 6.79965 12.5996 6.64965 12.3496 6.59961H11.5996C11.3996 6.59961 11.2496 6.74961 11.1995 6.99969V8.14965C9.69953 8.34969 8.74961 9.34965 8.74961 10.5997C8.74961 12.2497 9.74957 12.8996 11.8496 13.1497C13.2496 13.3997 13.6996 13.6997 13.6996 14.4997C13.6996 15.2997 12.9995 15.8497 12.0496 15.8497C10.7495 15.8497 10.2995 15.2996 10.1495 14.5496C10.0996 14.3497 9.94961 14.2496 9.79961 14.2496H8.94953C8.74961 14.2496 8.59961 14.3996 8.59961 14.5996V14.6497C8.79953 15.8996 9.59957 16.7996 11.2496 17.0497V18.2497C11.2496 18.4496 11.3996 18.5996 11.6495 18.6497H12.3995C12.5996 18.6497 12.7496 18.4997 12.7996 18.2497V17.0497C14.2996 16.7996 15.2996 15.7496 15.2996 14.3996Z" fill="white"/>
<path d="M9.45097 19.6499C5.55097 18.25 3.55094 13.9 5.00102 10.0499C5.75102 7.94992 7.40101 6.34996 9.45097 5.59996C9.65101 5.5 9.75097 5.35 9.75097 5.09992V4.39996C9.75097 4.19992 9.65101 4.04992 9.45097 4C9.40093 4 9.30098 4 9.25094 4.04992C4.50098 5.54992 1.90093 10.6 3.40093 15.35C4.30093 18.1499 6.45098 20.3 9.25094 21.2C9.45098 21.2999 9.65102 21.2 9.70094 20.9999C9.75098 20.95 9.75097 20.9 9.75097 20.8V20.0999C9.75097 19.9499 9.60097 19.75 9.45097 19.6499ZM14.751 4.04992C14.551 3.94996 14.3509 4.04992 14.301 4.24996C14.251 4.3 14.251 4.34992 14.251 4.45V5.14996C14.251 5.35 14.401 5.54992 14.551 5.65C18.451 7.04992 20.451 11.3999 19.0009 15.25C18.2509 17.35 16.6009 18.95 14.551 19.7C14.3509 19.7999 14.251 19.9499 14.251 20.2V20.9C14.251 21.1 14.3509 21.25 14.551 21.2999C14.601 21.2999 14.701 21.2999 14.751 21.25C19.501 19.75 22.101 14.6999 20.601 9.94996C19.701 7.09996 17.5009 4.94992 14.751 4.04992Z" fill="white"/>
</g>
<defs>
<clipPath id="clip0_367_920">
<rect width="24" height="24" fill="white" transform="translate(0 0.5)"/>
</clipPath>
</defs>
</svg>
